<svg width="2562" height="645" viewBox="0 0 2562 645" fill="none" xmlns="http://www.w3.org/2000/svg">
<path d="M1734.88 454.22V462.186C1734.88 483.935 1717.25 501.565 1695.5 501.565C1673.75 501.565 1656.12 483.934 1656.12 462.186V454.232L1695.5 414.846L1734.88 454.22ZM1845.79 272.517C1867.54 272.517 1885.17 290.148 1885.17 311.896C1885.17 333.646 1867.54 351.277 1845.79 351.277H1809.69L1784.38 325.969L1837.83 272.517H1845.79ZM1606.63 325.969L1581.32 351.277H1545.21C1523.46 351.277 1505.83 333.646 1505.83 311.896C1505.83 290.147 1523.46 272.517 1545.21 272.517H1553.17L1606.63 325.969ZM1695.5 122.228C1717.25 122.228 1734.88 139.859 1734.88 161.608V197.718L1695.5 237.092L1656.12 197.705V161.608C1656.12 139.859 1673.75 122.228 1695.5 122.228Z" fill="#243E63"/>
<path d="M1567.73 517.23L1500.77 450.27L1628.54 322.5L1500.77 194.73L1567.73 127.77L1695.5 255.54L1823.27 127.77L1890.23 194.73L1762.46 322.5L1890.23 450.27L1823.27 517.23L1695.5 389.46L1567.73 517.23Z" fill="#EB3C5C"/>
<path d="M2390.02 513.765H2186C2077.38 513.765 2048.14 475.486 2048.14 414.238V378.742C2048.14 315.406 2074.6 279.214 2179.04 279.214H2449.9C2454.51 279.214 2458.25 275.475 2458.25 270.863C2458.25 222.839 2440.15 210.311 2394.19 210.311L2233.17 214.255C2225.87 214.434 2219.86 208.563 2219.86 201.259V153.491C2219.86 146.435 2225.48 140.668 2232.54 140.495L2394.19 136.535C2514.65 136.535 2562 179.687 2562 275.735V367.606C2562 476.878 2523.71 513.765 2390.02 513.765ZM2458.25 375.262V356.246C2458.25 349.067 2452.43 343.246 2445.25 343.246H2190.18C2165.81 343.246 2151.19 351.598 2151.19 381.526V407.278C2151.19 433.726 2167.2 442.774 2193.66 442.774H2388.62C2437.37 442.774 2458.25 431.638 2458.25 375.262Z" fill="#243E63"/>
<path d="M2031.5 500.765C2031.5 507.944 2025.68 513.765 2018.5 513.765H1938.76C1931.58 513.765 1925.76 507.944 1925.76 500.765V159.229C1925.76 152.049 1931.58 146.229 1938.76 146.229H2018.5C2025.68 146.229 2031.5 152.049 2031.5 159.229V500.765Z" fill="#243E63"/>
<path d="M1291.45 513.764H1159.77C1018.34 513.764 977.238 470.614 977.238 350.906V300.1C977.238 179.697 1018.34 136.546 1159.77 136.546H1356.47C1363.65 136.546 1369.47 130.726 1369.47 123.546V27.751C1369.47 20.5713 1375.29 14.751 1382.47 14.751H1460.28C1467.46 14.751 1473.28 20.5713 1473.28 27.751V350.906C1473.28 470.614 1432.18 513.764 1291.45 513.764ZM1081.05 303.58V348.123C1081.05 414.24 1099.16 426.072 1173.01 426.072H1288.66C1354.15 426.072 1369.47 411.456 1369.47 348.818V238.631C1369.47 231.451 1363.65 225.631 1356.47 225.631H1172.31C1099.16 225.631 1081.05 236.071 1081.05 303.58Z" fill="#243E63"/>
<path d="M962.384 350.43C962.384 357.61 956.564 363.43 949.384 363.43H587.78C580.6 363.43 574.78 369.25 574.78 376.43V380.83C574.78 426.766 588.697 435.118 637.409 435.118H832.354C839.533 435.118 845.354 440.938 845.354 448.118V500.765C845.354 507.945 839.533 513.765 832.354 513.765H637.409C517.718 513.765 471.094 470.614 471.094 370.39V283.391C471.094 173.423 509.367 136.535 642.28 136.535H824.6C932.461 136.535 962.384 179.687 962.384 239.543V350.43ZM845.698 296.614C852.878 296.614 858.698 290.794 858.698 283.614V247.895C858.698 222.839 847.564 216.575 816.25 216.575H643.672C591.481 216.575 574.78 222.143 574.78 276.431V283.614C574.78 290.794 580.6 296.614 587.78 296.614H845.698Z" fill="#243E63"/>
<path d="M472.28 500.764C472.28 507.944 466.46 513.764 459.28 513.764H181.111C41.0982 513.764 0 470.614 0 350.905V52.1074C0 44.9277 5.8203 39.1074 13 39.1074H48.1834C79.6636 39.1074 105.183 64.6272 105.183 96.1074V346.73C105.183 401.712 123.294 423.287 190.166 423.287H459.28C466.46 423.287 472.28 429.107 472.28 436.287V500.764Z" fill="#243E63"/>
</svg>
