<svg width="2562" height="645" viewBox="0 0 2562 645" fill="none" xmlns="http://www.w3.org/2000/svg">
<path d="M1738.88 454.22V462.186C1738.88 483.935 1721.25 501.565 1699.5 501.565C1677.75 501.565 1660.12 483.934 1660.12 462.186V454.232L1699.5 414.846L1738.88 454.22ZM1849.79 272.517C1871.54 272.517 1889.17 290.148 1889.17 311.896C1889.17 333.646 1871.54 351.277 1849.79 351.277H1813.69L1788.38 325.969L1841.83 272.517H1849.79ZM1610.63 325.969L1585.32 351.277H1549.21C1527.46 351.277 1509.83 333.646 1509.83 311.896C1509.83 290.147 1527.46 272.517 1549.21 272.517H1557.17L1610.63 325.969ZM1699.5 122.228C1721.25 122.228 1738.88 139.859 1738.88 161.608V197.718L1699.5 237.092L1660.12 197.705V161.608C1660.12 139.859 1677.75 122.228 1699.5 122.228Z" fill="white"/>
<path d="M1571.73 517.23L1504.77 450.27L1632.54 322.5L1504.77 194.73L1571.73 127.77L1699.5 255.54L1827.27 127.77L1894.23 194.73L1766.46 322.5L1894.23 450.27L1827.27 517.23L1699.5 389.46L1571.73 517.23Z" fill="#EB3C5C"/>
<path d="M2390.02 510.765H2186C2077.38 510.765 2048.14 472.486 2048.14 411.238V375.742C2048.14 312.406 2074.6 276.214 2179.04 276.214H2449.9C2454.51 276.214 2458.25 272.475 2458.25 267.863C2458.25 219.839 2440.15 207.311 2394.19 207.311L2233.17 211.255C2225.87 211.434 2219.86 205.563 2219.86 198.259V150.491C2219.86 143.435 2225.48 137.668 2232.54 137.495L2394.19 133.535C2514.65 133.535 2562 176.687 2562 272.735V364.606C2562 473.878 2523.71 510.765 2390.02 510.765ZM2458.25 372.262V353.246C2458.25 346.067 2452.43 340.246 2445.25 340.246H2190.18C2165.81 340.246 2151.19 348.598 2151.19 378.526V404.278C2151.19 430.726 2167.2 439.774 2193.66 439.774H2388.62C2437.37 439.774 2458.25 428.638 2458.25 372.262Z" fill="white"/>
<path d="M2031.5 497.765C2031.5 504.944 2025.68 510.765 2018.5 510.765H1938.76C1931.58 510.765 1925.76 504.944 1925.76 497.765V156.229C1925.76 149.049 1931.58 143.229 1938.76 143.229H2018.5C2025.68 143.229 2031.5 149.049 2031.5 156.229V497.765Z" fill="white"/>
<path d="M1291.45 510.764H1159.77C1018.34 510.764 977.238 467.614 977.238 347.906V297.1C977.238 176.697 1018.34 133.546 1159.77 133.546H1356.47C1363.65 133.546 1369.47 127.726 1369.47 120.546V24.751C1369.47 17.5713 1375.29 11.751 1382.47 11.751H1460.28C1467.46 11.751 1473.28 17.5713 1473.28 24.751V347.906C1473.28 467.614 1432.18 510.764 1291.45 510.764ZM1081.05 300.58V345.123C1081.05 411.24 1099.16 423.072 1173.01 423.072H1288.66C1354.15 423.072 1369.47 408.456 1369.47 345.818V235.631C1369.47 228.451 1363.65 222.631 1356.47 222.631H1172.31C1099.16 222.631 1081.05 233.071 1081.05 300.58Z" fill="white"/>
<path d="M962.384 347.43C962.384 354.61 956.564 360.43 949.384 360.43H587.78C580.6 360.43 574.78 366.25 574.78 373.43V377.83C574.78 423.766 588.697 432.118 637.409 432.118H832.354C839.533 432.118 845.354 437.938 845.354 445.118V497.765C845.354 504.945 839.533 510.765 832.354 510.765H637.409C517.718 510.765 471.094 467.614 471.094 367.39V280.39C471.094 170.423 509.367 133.535 642.28 133.535H824.6C932.461 133.535 962.384 176.687 962.384 236.543V347.43ZM845.698 293.614C852.878 293.614 858.698 287.794 858.698 280.614V244.895C858.698 219.839 847.564 213.575 816.25 213.575H643.672C591.481 213.575 574.78 219.143 574.78 273.431V280.614C574.78 287.794 580.6 293.614 587.78 293.614H845.698Z" fill="white"/>
<path d="M472.28 497.764C472.28 504.944 466.46 510.764 459.28 510.764H181.111C41.0982 510.764 0 467.614 0 347.905V49.1074C0 41.9277 5.8203 36.1074 13 36.1074H48.1834C79.6636 36.1074 105.183 61.6272 105.183 93.1074V343.73C105.183 398.712 123.294 420.287 190.166 420.287H459.28C466.46 420.287 472.28 426.107 472.28 433.287V497.764Z" fill="white"/>
</svg>
